<svg width="550" height="550" viewBox="0 0 550 550" fill="none" xmlns="http://www.w3.org/2000/svg">
<g clip-path="url(#paint0_diamond_2211_40_clip_path)" data-figma-skip-parse="true"><g transform="matrix(-1.2725 0.791 -0.791 -1.2725 275 275)"><rect x="0" y="0" width="253.694" height="253.694" fill="url(#paint0_diamond_2211_40)" opacity="1" shape-rendering="crispEdges"/><rect x="0" y="0" width="253.694" height="253.694" transform="scale(1 -1)" fill="url(#paint0_diamond_2211_40)" opacity="1" shape-rendering="crispEdges"/><rect x="0" y="0" width="253.694" height="253.694" transform="scale(-1 1)" fill="url(#paint0_diamond_2211_40)" opacity="1" shape-rendering="crispEdges"/><rect x="0" y="0" width="253.694" height="253.694" transform="scale(-1)" fill="url(#paint0_diamond_2211_40)" opacity="1" shape-rendering="crispEdges"/></g></g><circle cx="275" cy="275" r="275" data-figma-gradient-fill="{&#34;type&#34;:&#34;GRADIENT_DIAMOND&#34;,&#34;stops&#34;:[{&#34;color&#34;:{&#34;r&#34;:1.0,&#34;g&#34;:0.75686275959014893,&#34;b&#34;:0.027450980618596077,&#34;a&#34;:1.0},&#34;position&#34;:0.0},{&#34;color&#34;:{&#34;r&#34;:1.0,&#34;g&#34;:0.42788460850715637,&#34;b&#34;:0.019230769947171211,&#34;a&#34;:1.0},&#34;position&#34;:1.0}],&#34;stopsVar&#34;:[{&#34;color&#34;:{&#34;r&#34;:1.0,&#34;g&#34;:0.75686275959014893,&#34;b&#34;:0.027450980618596077,&#34;a&#34;:1.0},&#34;position&#34;:0.0},{&#34;color&#34;:{&#34;r&#34;:1.0,&#34;g&#34;:0.42788460850715637,&#34;b&#34;:0.019230769947171211,&#34;a&#34;:1.0},&#34;position&#34;:1.0}],&#34;transform&#34;:{&#34;m00&#34;:-2545.0,&#34;m01&#34;:-1582.0002441406250,&#34;m02&#34;:2338.50,&#34;m10&#34;:1582.0002441406250,&#34;m11&#34;:-2545.0,&#34;m12&#34;:756.4997558593750},&#34;opacity&#34;:1.0,&#34;blendMode&#34;:&#34;NORMAL&#34;,&#34;visible&#34;:true}"/>
<path d="M415 312.226H359.66C347.08 312.226 335.015 317.224 326.119 326.119C317.224 335.015 312.226 347.08 312.226 359.66V415M223.753 217.245H342.338M241.584 279.785L269.31 307.511C271.493 309.694 275.032 309.694 277.216 307.511L327.304 257.423M351.642 154H217.245C200.472 154 184.385 160.663 172.524 172.524C160.663 184.385 154 200.472 154 217.245V351.642C154 368.415 160.663 384.502 172.524 396.363C184.385 408.224 200.472 414.887 217.245 414.887H325.442C333.75 414.887 341.976 413.251 349.651 410.071C357.326 406.892 364.299 402.231 370.173 396.356L396.356 370.173C402.231 364.299 406.892 357.326 410.071 349.651C413.251 341.976 414.887 333.75 414.887 325.442V217.245C414.887 200.472 408.224 184.385 396.363 172.524C384.502 160.663 368.415 154 351.642 154Z" stroke="white" stroke-width="25" stroke-linecap="round"/>
<defs>
<clipPath id="paint0_diamond_2211_40_clip_path"><circle cx="275" cy="275" r="275"/></clipPath><linearGradient id="paint0_diamond_2211_40" x1="0" y1="0" x2="500" y2="500" gradientUnits="userSpaceOnUse">
<stop stop-color="#FFC107"/>
<stop offset="1" stop-color="#FF6D05"/>
</linearGradient>
</defs>
</svg>
